<svg width="478" height="98" viewBox="0 0 478 98" fill="none" xmlns="http://www.w3.org/2000/svg">
<path d="M23.5723 23.5723C28.6014 18.5432 35.0089 15.1183 41.9845 13.7308C48.9601 12.3432 56.1905 13.0554 62.7613 15.7771C69.3322 18.4988 74.9484 23.1079 78.8998 29.0216C82.8511 34.9352 84.9602 41.8877 84.9602 49C84.9602 56.1122 82.8511 63.0648 78.8998 68.9784C74.9484 74.892 69.3322 79.5011 62.7613 82.2228C56.1905 84.9446 48.9601 85.6567 41.9845 84.2692C35.0089 82.8817 28.6014 79.4568 23.5723 74.4277" stroke="black" stroke-width="7"/>
<path d="M16.8266 16.8266C23.1899 10.4634 31.2973 6.1299 40.1234 4.37427C48.9495 2.61864 58.0981 3.51969 66.4121 6.96348C74.7261 10.4073 81.8323 16.2391 86.8319 23.7216C91.8315 31.204 94.5 40.001 94.5 49C94.5 57.999 91.8315 66.796 86.8319 74.2784C81.8323 81.7609 74.7261 87.5927 66.4121 91.0365C58.0981 94.4803 48.9495 95.3814 40.1234 93.6257C31.2973 91.8701 23.1899 87.5366 16.8266 81.1734" stroke="black" stroke-width="7"/>
<path d="M143.333 57.018V66.418C143.333 71.118 141.265 72.81 137.975 72.81C134.685 72.81 132.617 71.118 132.617 66.418V30.886C132.617 26.186 134.685 24.4 137.975 24.4C141.265 24.4 143.333 26.186 143.333 30.886V37.936H153.109V31.544C153.109 21.016 147.845 15 137.693 15C127.541 15 122.277 21.016 122.277 31.544V65.76C122.277 76.288 127.541 82.304 137.693 82.304C147.845 82.304 153.109 76.288 153.109 65.76V57.018H143.333Z" fill="black"/>
<path d="M171.696 30.886C171.696 26.186 173.764 24.4 177.054 24.4C180.344 24.4 182.412 26.186 182.412 30.886V66.418C182.412 71.118 180.344 72.904 177.054 72.904C173.764 72.904 171.696 71.118 171.696 66.418V30.886ZM161.356 65.76C161.356 76.288 166.902 82.304 177.054 82.304C187.206 82.304 192.752 76.288 192.752 65.76V31.544C192.752 21.016 187.206 15 177.054 15C166.902 15 161.356 21.016 161.356 31.544V65.76Z" fill="black"/>
<path d="M202.292 81.552H229.646V72.152H212.632V15.752H202.292V81.552Z" fill="black"/>
<path d="M236.966 81.552H264.32V72.152H247.306V15.752H236.966V81.552Z" fill="black"/>
<path d="M281.979 25.152H299.839V15.752H271.639V81.552H299.839V72.152H281.979V52.882H296.173V43.482H281.979V25.152Z" fill="black"/>
<path d="M329.276 57.018V66.418C329.276 71.118 327.208 72.81 323.918 72.81C320.628 72.81 318.56 71.118 318.56 66.418V30.886C318.56 26.186 320.628 24.4 323.918 24.4C327.208 24.4 329.276 26.186 329.276 30.886V37.936H339.052V31.544C339.052 21.016 333.788 15 323.636 15C313.484 15 308.22 21.016 308.22 31.544V65.76C308.22 76.288 313.484 82.304 323.636 82.304C333.788 82.304 339.052 76.288 339.052 65.76V57.018H329.276Z" fill="black"/>
<path d="M345.138 25.152H355.948V81.552H366.288V25.152H377.098V15.752H345.138V25.152Z" fill="black"/>
<path d="M384.472 81.552H394.812V15.752H384.472V81.552Z" fill="black"/>
<path d="M414.686 30.886C414.686 26.186 416.754 24.4 420.044 24.4C423.334 24.4 425.402 26.186 425.402 30.886V66.418C425.402 71.118 423.334 72.904 420.044 72.904C416.754 72.904 414.686 71.118 414.686 66.418V30.886ZM404.346 65.76C404.346 76.288 409.892 82.304 420.044 82.304C430.196 82.304 435.742 76.288 435.742 65.76V31.544C435.742 21.016 430.196 15 420.044 15C409.892 15 404.346 21.016 404.346 31.544V65.76Z" fill="black"/>
<path d="M467.372 81.552H477.994V15.752H468.782V55.138L458.16 15.752H445.188V81.552H454.494V33.894L467.372 81.552Z" fill="black"/>
</svg>
